<svg xmlns="http://www.w3.org/2000/svg" xmlns:xlink="http://www.w3.org/1999/xlink" version="1.1" width="256" height="256" viewBox="0 0 256 256" xml:space="preserve">

<defs>
</defs>
<g style="stroke: none; stroke-width: 0; stroke-dasharray: none; stroke-linecap: butt; stroke-linejoin: miter; stroke-miterlimit: 10; fill: none; fill-rule: nonzero; opacity: 1;" transform="translate(1.4065934065934016 1.4065934065934016) scale(2.81 2.81)" >
	<path d="M 62.631 4.724 H 27.369 c -3.479 0 -6.693 1.856 -8.433 4.869 L 1.305 40.131 c -1.739 3.013 -1.739 6.725 0 9.737 l 17.631 30.538 c 1.739 3.013 4.954 4.869 8.433 4.869 h 35.263 c 3.479 0 6.693 -1.856 8.433 -4.869 l 17.631 -30.538 c 1.739 -3.013 1.739 -6.725 0 -9.737 L 71.064 9.593 C 69.325 6.58 66.11 4.724 62.631 4.724 z" style="stroke: none; stroke-width: 1; stroke-dasharray: none; stroke-linecap: butt; stroke-linejoin: miter; stroke-miterlimit: 10; fill: rgb(255,69,0); fill-rule: nonzero; opacity: 1;" transform=" matrix(1 0 0 1 0 0) " stroke-linecap="round" />
	<path d="M 68.057 45.31 c -0.103 -2.788 -2.444 -4.966 -5.241 -4.871 c -1.239 0.043 -2.418 0.551 -3.313 1.403 c -3.942 -2.685 -8.572 -4.157 -13.331 -4.26 l 2.246 -10.801 l 7.41 1.558 c 0.206 1.902 1.91 3.279 3.812 3.072 c 1.902 -0.206 3.279 -1.91 3.072 -3.812 c -0.207 -1.902 -1.91 -3.279 -3.812 -3.072 c -1.093 0.112 -2.074 0.749 -2.616 1.696 l -8.486 -1.696 c -0.576 -0.129 -1.153 0.232 -1.283 0.818 c 0 0.008 0 0.008 0 0.017 L 43.96 37.375 c -4.819 0.078 -9.51 1.558 -13.503 4.26 c -2.031 -1.91 -5.233 -1.816 -7.143 0.224 c -1.91 2.031 -1.816 5.233 0.224 7.143 c 0.396 0.37 0.852 0.689 1.36 0.912 c -0.035 0.508 -0.035 1.016 0 1.523 c 0 7.754 9.036 14.062 20.181 14.062 s 20.181 -6.3 20.181 -14.062 c 0.035 -0.508 0.035 -1.016 0 -1.523 C 66.998 49.045 68.092 47.255 68.057 45.31 z M 33.434 48.778 c 0 -1.91 1.558 -3.468 3.468 -3.468 c 1.91 0 3.468 1.558 3.468 3.468 c 0 1.91 -1.558 3.468 -3.468 3.468 C 34.984 52.229 33.434 50.688 33.434 48.778 z M 53.547 58.434 v -0.138 c -2.461 1.85 -5.473 2.797 -8.555 2.668 c -3.081 0.129 -6.093 -0.818 -8.555 -2.668 c -0.327 -0.396 -0.267 -0.989 0.129 -1.316 c 0.344 -0.284 0.835 -0.284 1.188 0 c 2.083 1.523 4.622 2.298 7.203 2.177 c 2.582 0.138 5.13 -0.602 7.238 -2.108 c 0.379 -0.37 0.998 -0.362 1.369 0.017 C 53.934 57.444 53.926 58.064 53.547 58.434 z M 53.074 52.496 c -0.06 0 -0.112 0 -0.172 0 l 0.026 -0.129 c -1.91 0 -3.468 -1.558 -3.468 -3.468 s 1.558 -3.468 3.468 -3.468 c 1.91 0 3.468 1.558 3.468 3.468 C 56.473 50.809 54.984 52.418 53.074 52.496 z" style="stroke: none; stroke-width: 1; stroke-dasharray: none; stroke-linecap: butt; stroke-linejoin: miter; stroke-miterlimit: 10; fill: rgb(255,255,255); fill-rule: nonzero; opacity: 1;" transform=" matrix(1 0 0 1 0 0) " stroke-linecap="round" />
</g>
</svg>