<svg xmlns="http://www.w3.org/2000/svg" xmlns:xlink="http://www.w3.org/1999/xlink" version="1.1" width="256" height="256" viewBox="0 0 256 256" xml:space="preserve">

<defs>
</defs>
<g style="stroke: none; stroke-width: 0; stroke-dasharray: none; stroke-linecap: butt; stroke-linejoin: miter; stroke-miterlimit: 10; fill: none; fill-rule: nonzero; opacity: 1;" transform="translate(1.4065934065934016 1.4065934065934016) scale(2.81 2.81)" >
	<path d="M 62.631 4.724 H 27.369 c -3.479 0 -6.693 1.856 -8.433 4.869 L 1.305 40.131 c -1.739 3.013 -1.739 6.725 0 9.737 l 17.631 30.538 c 1.739 3.013 4.954 4.869 8.433 4.869 h 35.263 c 3.479 0 6.693 -1.856 8.433 -4.869 l 17.631 -30.538 c 1.739 -3.013 1.739 -6.725 0 -9.737 L 71.064 9.593 C 69.325 6.58 66.11 4.724 62.631 4.724 z" style="stroke: none; stroke-width: 1; stroke-dasharray: none; stroke-linecap: butt; stroke-linejoin: miter; stroke-miterlimit: 10; fill: rgb(255,0,0); fill-rule: nonzero; opacity: 1;" transform=" matrix(1 0 0 1 0 0) " stroke-linecap="round" />
	<polygon points="31.5,65.21 66.5,45 31.5,24.79 " style="stroke: none; stroke-width: 1; stroke-dasharray: none; stroke-linecap: butt; stroke-linejoin: miter; stroke-miterlimit: 10; fill: rgb(255,255,255); fill-rule: nonzero; opacity: 1;" transform="  matrix(1 0 0 1 0 0) "/>
</g>
</svg>